<svg width="128" height="128" viewBox="0 0 128 128" xmlns="http://www.w3.org/2000/svg">
  <!-- Background circle -->
  <circle cx="64" cy="64" r="60" fill="#f0f0f0" stroke="#333" stroke-width="2"/>

  <!-- Palette shape -->
  <path d="M 64 20 C 40 20 20 40 20 64 C 20 88 40 108 64 108 C 70 108 76 106 76 100 C 76 97 75 95 73 93 C 72 91 71 88 71 86 C 71 80 76 76 82 76 L 94 76 C 105 76 114 67 114 56 C 114 35 91 20 64 20 Z" fill="#888" stroke="#333" stroke-width="2"/>

  <!-- Color dots on palette -->
  <circle cx="45" cy="45" r="6" fill="#FF6B6B"/>
  <circle cx="64" cy="40" r="6" fill="#4ECDC4"/>
  <circle cx="83" cy="45" r="6" fill="#45B7D1"/>
  <circle cx="45" cy="70" r="6" fill="#FFA07A"/>
  <circle cx="64" cy="75" r="6" fill="#98D8C8"/>

  <!-- Grayscale indicator (half circle) -->
  <path d="M 64 64 L 64 20 A 44 44 0 0 1 108 64 Z" fill="rgba(0,0,0,0.2)"/>
</svg>
